PathFileType	4	(X/Y/Z)	RBDS021\RBDS021runT35.trc
DataRate	CameraRate	NumFrames	NumMarkers	Units	OrigDataRate	OrigDataStartFrame	OrigNumFrames
150.000000	150.000000	4	33	mm	150.000000	562	4500
Frame#	Time	L.ASIS			L.Heel.Bottom			L.Heel.Lateral			L.Heel.Top			L.Iliac.Crest			L.MT1			L.MT5			L.PSIS			L.Shank.Bottom.Lateral			L.Shank.Bottom.Medial			L.Shank.Top.Lateral			L.Shank.Top.Medial			L.Thigh.Bottom.Lateral			L.Thigh.Bottom.Medial			L.Thigh.Top.Lateral			L.Thigh.Top.Medial			R.ASIS			R.ASY			R.Heel.Bottom			R.Heel.Lateral			R.Heel.Top			R.Iliac.Crest			R.MT1			R.MT5			R.PSIS			R.Shank.Bottom.Lateral			R.Shank.Bottom.Medial			R.Shank.Top.Lateral			R.Shank.Top.Medial			R.Thigh.Bottom.Lateral			R.Thigh.Bottom.Medial			R.Thigh.Top.Lateral			R.Thigh.Top.Medial			
		X1	Y1	Z1	X2	Y2	Z2	X3	Y3	Z3	X4	Y4	Z4	X5	Y5	Z5	X6	Y6	Z6	X7	Y7	Z7	X8	Y8	Z8	X9	Y9	Z9	X10	Y10	Z10	X11	Y11	Z11	X12	Y12	Z12	X13	Y13	Z13	X14	Y14	Z14	X15	Y15	Z15	X16	Y16	Z16	X17	Y17	Z17	X18	Y18	Z18	X19	Y19	Z19	X20	Y20	Z20	X21	Y21	Z21	X22	Y22	Z22	X23	Y23	Z23	X24	Y24	Z24	X25	Y25	Z25	X26	Y26	Z26	X27	Y27	Z27	X28	Y28	Z28	X29	Y29	Z29	X30	Y30	Z30	X31	Y31	Z31	X32	Y32	Z32	X33	Y33	Z33	

563	3.746666666666667	2144.709352345399	934.8531114437674	907.000580199161	1829.056289856966	53.63994294477438	1053.66057454287	1843.395788597177	67.83496759289685	1000.180367951619	1843.983893823772	98.20939011715541	1045.75940277434	2070.613730221818	1008.992587447893	865.4882622598338	2042.603435775818	38.69690673584105	1019.050315573343	1974.003451306715	36.33569748371597	924.8780457952269	1976.631210898996	981.9651490243865	1001.979607081239	1937.954417186419	169.5918908039386	948.2786971413519	1910.119235041387	197.9078916333694	987.2281700637908	1967.5381738923	239.366032195744	920.1259547279403	1940.363307467532	267.4575686841633	958.0088551393343	2089.619563117762	582.2230898784518	849.6120744231382	2028.24908450074	579.8094050813988	885.7406841568405	2070.551039753887	689.0872641322316	829.5635511756562	2012.514623291036	687.241219194735	865.5482040293733	2165.946242853896	909.9555472379425	1126.552815615908	1893.636474344111	252.9915388516371	1104.104093878424	1801.844651687616	409.0711259743564	1052.465372125261	1821.06648825783	396.1506293035414	1103.050574820257	1846.701003484437	412.2098842143964	1057.874150739251	2110.422257870644	980.5362674923834	1181.132919665448	1867.021415067757	205.1585778838229	1059.254300711608	1842.864806141888	245.9859844554351	1161.608515874744	1982.920632508221	972.1814129343862	1080.941359623902	1948.822399325649	403.4889740264264	1127.964494095956	1947.969458368181	426.9841842339043	1082.329882624166	2027.557656138943	433.4358977457532	1140.076458650645	2021.124990244044	459.6739258397282	1094.178561153515	2212.435542552015	589.5265566172259	1178.337080193896	2153.508164290643	558.3986150068524	1147.443145344623	2153.083668284692	680.6012571974383	1192.400078153554	2097.677064409922	650.5337920068405	1162.028889366656	
564	3.753333333333333	2146.050307941043	935.5512057478225	908.1577910608643	1806.018954705182	58.08495683783244	1053.26503081101	1820.64013743026	71.47399100387804	999.5288120699455	1821.794016879792	102.334311512607	1044.903352957931	2073.249696655136	1011.77020486298	865.5367536657166	2018.465360488502	38.61368753767164	1019.098864487982	1950.323027768435	36.59681763882431	924.9743907275248	1976.713830654018	984.3950175167789	999.3209991747805	1916.896729343118	172.6565988542901	948.0776695810354	1889.619278868828	201.342309465194	987.089942042101	1947.9370793985	241.8628697242821	920.2122036675694	1921.243519467833	270.4080565726754	958.1471015204805	2080.32441596856	582.4088805755715	850.1305996403613	2018.138854155282	581.9615693830724	885.1033437054042	2065.031016846761	689.9177475825098	829.9013711032725	2006.383241331542	689.960353639453	865.0374537394192	2163.800457403227	914.2054536833724	1128.552452847812	1917.995696300203	243.4270278875848	1103.85268028853	1816.318969528463	394.5028277746786	1056.058921189268	1836.916708197723	381.9144351943172	1106.223066262509	1860.980462764863	400.3179270933307	1061.041174592945	2105.468130030007	984.5452639400689	1182.404394757801	1893.705264670563	194.8230301457722	1058.312161147211	1868.420697466424	232.4127308481089	1161.846762225961	1981.745274124473	975.3139115528451	1078.493285194976	1964.677212077866	396.3848128476434	1129.269568599856	1961.805303906365	420.4463504786782	1084.062308740184	2041.745373148502	430.4240486273529	1140.801759827851	2033.096318865064	456.9633329366941	1095.386425192275	2220.928602715457	598.0536179222614	1177.095879125671	2163.106759888797	564.6667231587055	1146.490754909926	2158.029470948652	686.6729168994905	1191.968459184724	2103.532563191561	654.4172381740699	1162.184977401932	
565	3.76	2147.802052392515	936.6442567330295	909.4442009949707	1783.308544876336	63.28369527534617	1052.681136999038	1798.282949736218	75.74213191134433	998.7125733002582	1800.076339212074	107.1137575568411	1043.825554174939	2076.777246772138	1014.722205217642	865.5855189160092	1994.405229352262	38.59364731719089	1019.192150153471	1926.763444108931	36.92038335297448	925.0170436127663	1977.240172843077	987.171766882529	996.5543486493212	1896.107438943154	176.355694692315	947.7080651497204	1869.39693719124	205.2841317514015	986.8831003941184	1928.455729370844	245.0767523887514	920.2334285815815	1902.225008865481	273.945658221528	958.2694797141506	2070.860990641794	583.1557243260079	850.8657463034184	2008.093401775722	584.8474574243829	884.9228534973453	2059.464914268651	691.1617597418481	830.407390700567	2000.380991391682	693.2386890064658	864.8553988506451	2162.130211749098	919.2235134265724	1130.370243394811	1943.014855545384	233.7464895321101	1103.702305888399	1831.448833311343	378.3334347377444	1058.614899049688	1853.28277104398	366.5174667789793	1108.475458238769	1875.675064746292	386.9959459853393	1063.30145922998	2101.369101309029	989.0541723895423	1183.488330668834	1921.501549233669	184.2006423604486	1057.67396005285	1894.80580945114	218.8328323948929	1161.969918465425	1980.977221391349	978.8880658480296	1075.988395232675	1980.420345909595	388.6829225836345	1130.155603674778	1975.478173264972	413.1205602274841	1085.366520301259	2055.334829788253	427.1331129207588	1141.329038307743	2044.434194502194	453.7377983604053	1096.382980497312	2228.575933264984	607.2662431554537	1175.872883786759	2171.858745658472	571.8799670056261	1145.491521156599	2162.517267444394	693.5007383844622	1191.61610748362	2108.973952672114	659.3118469670701	1162.318255426964	
566	3.766666666666667	2149.922969307793	938.1506219689782	910.7946476414608	1761.080072783359	69.33943141035604	1051.826411772157	1776.471574155138	80.69941725640695	997.6496568202499	1778.999391995578	112.6122426374449	1042.420554426255	2081.167828176035	1017.738623169806	865.6482245680265	1970.503745760076	38.63192858941341	1019.262372505721	1903.383676837	37.28542781934515	924.9388782097159	1978.233614184735	990.2959394560951	993.7815625008526	1875.742868696108	180.6986114658723	947.0639353387893	1849.594640627009	209.7290120477568	986.5025661948746	1909.238947932925	249.036625022462	920.0992296982007	1883.439667885104	278.0830624147387	958.2878274178831	2061.310600688676	584.5345864184214	851.8045569045979	1998.218556809173	588.5206573680896	885.2059525925062	2053.926369263095	692.8686812666397	831.0624720753345	1994.593582040776	697.1106033845386	864.9876830162814	2160.974743503878	924.815421774781	1131.942785858093	1968.703937238055	224.0778276654985	1103.697760649169	1847.444522519109	360.7543073160755	1060.087733561009	1870.31073474704	350.1113420147711	1109.773369248807	1890.970168901494	372.3930590046434	1064.612884656708	2098.185891007171	993.9729494153527	1184.394030308808	1950.447116503647	173.4920039315542	1057.377789714071	1922.003729359235	205.4032229533213	1162.022730285178	1980.651430873645	982.8759526001299	1073.531527552782	1996.149554123517	380.4226845933975	1130.598597790532	1989.136964240352	405.0147147776472	1086.19041199362	2068.399484726089	423.5054944312118	1141.620762720457	2055.2705989574	449.9031053298197	1097.103799025845	2235.395717481182	616.9557526371465	1174.701610097438	2179.726428444688	579.8273985811819	1144.523766336559	2166.583925820599	700.9370395848105	1191.346151489587	2113.98614924435	665.0697656238292	1162.466340663246	
